<svg xmlns="http://www.w3.org/2000/svg" xmlns:xlink="http://www.w3.org/1999/xlink" width="626" zoomAndPan="magnify" viewBox="0 0 469.5 312.749995" height="417" preserveAspectRatio="xMidYMid meet" version="1.0"><defs><clipPath id="7595980890"><path d="M 0 0.0429688 L 469 0.0429688 L 469 312.457031 L 0 312.457031 Z M 0 0.0429688 " clip-rule="nonzero"/></clipPath><clipPath id="4bdb112458"><path d="M 182.160156 93.867188 L 287.683594 93.867188 L 287.683594 219.105469 L 182.160156 219.105469 Z M 182.160156 93.867188 " clip-rule="nonzero"/></clipPath></defs><g clip-path="url(#7595980890)"><path fill="#ffffff" d="M 0 0.0429688 L 469.5 0.0429688 L 469.5 320.292969 L 0 320.292969 Z M 0 0.0429688 " fill-opacity="1" fill-rule="nonzero"/><path fill="#ffffff" d="M 0 0.0429688 L 469.5 0.0429688 L 469.5 312.792969 L 0 312.792969 Z M 0 0.0429688 " fill-opacity="1" fill-rule="nonzero"/><path fill="#ffffff" d="M 0 0.0429688 L 469.5 0.0429688 L 469.5 312.792969 L 0 312.792969 Z M 0 0.0429688 " fill-opacity="1" fill-rule="nonzero"/></g><g clip-path="url(#4bdb112458)"><path fill="#e2181a" d="M 239.429688 159.855469 C 237.105469 166.972656 241.882812 172.296875 244.167969 169.410156 C 246.6875 166.21875 243.007812 162.042969 239.429688 159.855469 Z M 234.054688 142.585938 C 231.011719 143.953125 231.90625 138.773438 223.535156 133.523438 C 215.34375 128.386719 207.070312 144.75 228.308594 153.945312 C 228.878906 154.191406 236.242188 157.230469 237.765625 157.714844 C 238.277344 156.398438 238.601562 154.015625 241.726562 147.945312 C 247.488281 136.761719 255.082031 125.75 256.757812 121.332031 C 255.453125 121.042969 247.566406 124.320312 242.09375 129.582031 C 237.617188 133.886719 234.773438 138.773438 234.054688 142.585938 Z M 261.148438 119.976562 C 253.808594 134.910156 244.121094 144.933594 239.746094 158.15625 C 240.847656 158.6875 247.832031 162.0625 246.023438 168.335938 C 244.648438 173.105469 235.179688 171.410156 237.53125 158.9375 C 235.992188 157.730469 219.816406 154.117188 214.3125 144.875 C 208.339844 134.855469 217.871094 126.136719 228.945312 135.628906 C 231.957031 138.210938 232.535156 140.390625 232.964844 140.660156 C 236.902344 129.214844 247.855469 121.179688 257.90625 119 C 258.6875 118.0625 263.121094 107.171875 259.171875 99.867188 C 252.652344 87.820312 219.601562 101.300781 218.710938 125.675781 C 218.679688 126.542969 217.621094 126.992188 217.003906 126.378906 C 216.960938 126.332031 216.910156 126.28125 216.863281 126.230469 C 207.875 116.183594 194.695312 112.515625 189.007812 121.242188 C 180.835938 133.769531 191.273438 155.945312 214.15625 161.828125 C 217.007812 162.5625 217.625 162.253906 217.996094 162.28125 C 218.265625 162.300781 218.410156 162.640625 218.222656 162.835938 C 216.332031 164.777344 193.34375 159.507812 184.925781 142.246094 C 176.242188 124.433594 188.960938 107.054688 209.867188 118.359375 C 214.453125 120.835938 216.472656 124.132812 216.984375 124.355469 C 217.554688 124.230469 216.785156 117.957031 223.679688 108.503906 C 238.328125 88.421875 273.550781 86.613281 261.921875 118.238281 C 261.957031 118.269531 293.929688 114.554688 286.589844 152.726562 C 278.808594 193.179688 209.445312 226.496094 222.851562 217.675781 C 242.503906 204.742188 267.90625 187.429688 278.335938 166.140625 C 287.125 148.195312 287.707031 116.683594 261.148438 119.976562 " fill-opacity="1" fill-rule="nonzero"/></g></svg>